<svg width="50" height="50" viewBox="0 0 50 50" fill="none" xmlns="http://www.w3.org/2000/svg">
<path d="M45 25.6254C45 36.6711 36.0457 45.6254 25 45.6254C13.9543 45.6254 5 36.6711 5 25.6254C5 14.5797 16.5 10.1255 25 14.6253C25.9818 14.1344 26.9875 13.7501 28 13.4692C36.2691 11.1758 45 15.7847 45 25.6254Z" fill="#BF5A5A"/>
<path d="M24.8554 14.7549C24.4941 14.2546 24.2165 13.7079 23.8364 13.2173C23.2748 12.4923 22.5965 11.8393 22.1139 11.0559C20.9317 9.13703 21.8172 6.67737 23.2236 5.13042C24.4866 3.74107 25.9903 2.80529 27.8146 2.35624C28.8968 2.08983 30.0159 2.15678 31.1218 2.15678" stroke="#78A768" stroke-linecap="round"/>
<path d="M31.7745 2.28735C30.7734 3.06869 29.6713 3.77388 28.7392 4.64088C28.2053 5.13757 28.2835 5.68803 28.4128 6.36341C28.5807 7.24004 28.7175 8.13272 28.2859 8.95265C27.3459 10.7388 25.3776 12.3271 25.3776 14.4938" stroke="#78A768" stroke-linecap="round"/>
<path d="M24.21 14.9005C22.8736 15.155 22.0011 14.8285 20.8471 14.3156C20.5656 14.1905 20.729 14.2227 20.95 14.2669C21.5198 14.3809 22.0907 14.4625 22.6504 14.6297C22.9945 14.7326 24.0222 14.998 23.6631 14.998C23.3832 14.998 23.043 14.6822 22.8129 14.5539C22.3215 14.2801 21.7621 14.1057 21.2316 13.9257C20.9286 13.8229 20.8729 13.8356 21.1882 13.9257C22.008 14.1599 22.7388 14.5719 23.6197 14.711C23.8662 14.7499 24.5771 14.9878 24.3454 14.8951C24.1172 14.8038 23.8849 14.6906 23.6468 14.6297C23.2438 14.5266 22.8873 14.2932 22.4717 14.2127C22.04 14.1292 20.7702 13.8282 21.2099 13.8282C21.5308 13.8282 21.7133 14.1015 21.9897 14.2182C22.5957 14.474 23.2475 14.6616 23.8797 14.8355C24.7154 15.0653 25.5439 15.2152 26.3112 14.8572C26.7539 14.6506 27.2456 14.6344 27.7192 14.6081C27.8169 14.6026 27.9375 14.4707 27.9087 14.3698C27.867 14.2238 27.5583 14.4143 27.4809 14.4348C27.1605 14.5196 26.8911 14.6322 26.5928 14.7814C26.3541 14.9007 25.9713 15.377 25.7317 15.377C25.59 15.377 25.9071 15.145 26.0296 15.0738C26.5115 14.7936 26.9887 14.6792 27.5188 14.5106C27.5838 14.4899 28.3094 14.1547 28.1957 14.4673C28.0405 14.8941 27.3428 15.401 26.9394 15.5612C26.1957 15.8564 25.3842 15.7778 24.5999 15.7778" stroke="#78A768" stroke-linecap="round"/>
<path d="M23.4552 14.3853C23.2886 14.1566 23.0407 14.0605 22.7825 13.9642C22.5391 13.8733 22.3035 13.8314 22.0497 13.7857C21.8357 13.7472 21.6142 13.7635 21.3975 13.7635C21.2139 13.7635 21.0166 13.7425 20.8349 13.7709C20.7082 13.7907 20.5943 13.8191 20.487 13.8885C20.3833 13.9556 20.3472 14.1505 20.3842 14.2668C20.4665 14.5253 20.7497 14.6761 20.9624 14.808C21.3826 15.0686 21.8359 15.2729 22.2997 15.4429C22.6951 15.5879 23.0912 15.7412 23.5013 15.8393C23.9721 15.952 24.4457 16.0013 24.9307 15.9989C25.3829 15.9966 25.8382 15.8712 26.2729 15.762C26.5164 15.7009 26.7763 15.6752 27.0082 15.5745C27.207 15.4882 27.4174 15.3581 27.5822 15.2176C27.7616 15.0647 27.8892 14.8605 28.0214 14.6682C28.0769 14.5875 28.16 14.4892 28.1744 14.3885C28.2088 14.1475 27.8443 14.0898 27.6859 14.0448C27.4249 13.9705 27.0678 13.9955 26.8124 14.0744C26.4164 14.1967 26.0104 14.2803 25.6084 14.382C25.3224 14.4543 25.0545 14.5333 24.7572 14.5333C24.2237 14.5333 23.7109 14.3916 23.1945 14.2676C22.8206 14.1779 22.4618 14.0122 22.1105 13.8597C21.9636 13.7959 21.7927 13.757 21.6376 13.7158C21.48 13.6738 21.3161 13.6436 21.154 13.6237C20.8994 13.5924 20.6339 13.5912 20.3776 13.6015C20.2047 13.6084 19.9613 13.6947 19.8283 13.8087C19.8053 13.8284 19.7404 13.8648 19.7954 13.8112C19.8412 13.7664 19.9969 13.654 19.9516 13.6993C19.8626 13.7884 19.7383 13.8449 19.6424 13.9272C19.5851 13.9763 19.5784 14.1001 19.5766 14.1698C19.5734 14.2897 19.6154 14.4108 19.6802 14.5119C19.7595 14.6355 19.8252 14.7403 19.9319 14.8442C20.0448 14.9542 20.1913 15.0716 20.3382 15.1287C20.5908 15.227 20.8341 15.3422 21.0915 15.4298C21.4094 15.5378 21.7306 15.6496 22.0521 15.7472C22.2653 15.8119 22.4878 15.8757 22.7052 15.9249C22.9218 15.9739 23.1423 15.994 23.3598 16.0351C23.7979 16.1178 24.2387 16.1617 24.6848 16.1617C24.8984 16.1617 25.1242 16.1674 25.3362 16.1395C25.5824 16.1071 25.8116 16.0656 26.0533 16.0063C26.6074 15.8704 27.1685 15.7416 27.6678 15.4577C27.874 15.3405 28.064 15.2224 28.2525 15.081C28.3797 14.9856 28.5256 14.8668 28.6062 14.7257C28.7263 14.5155 28.7529 14.2003 28.5741 14.0036C28.4175 13.8314 28.1825 13.8024 27.9606 13.7816C27.7477 13.7616 27.5327 13.7635 27.3191 13.7635C27.066 13.7635 26.8242 13.8226 26.5789 13.8786C26.4662 13.9044 26.3417 13.9241 26.2334 13.9675C26.2023 13.9799 26.1476 13.9987 26.1142 13.9987C26.0749 13.9987 26.18 13.9542 26.217 13.9411C26.3446 13.8961 26.472 13.8413 26.5994 13.7939C26.7879 13.7238 26.987 13.6967 27.1858 13.6747C27.4555 13.6447 27.7335 13.6483 28.0009 13.6895C28.2142 13.7223 28.4226 13.8183 28.6292 13.8819C28.7799 13.9283 28.885 13.9952 28.9689 14.127C28.9979 14.1725 28.9771 14.2776 28.9771 14.3293C28.9771 14.3883 28.9848 14.4515 28.9656 14.507C28.8881 14.7308 28.6565 14.9189 28.4705 15.0547C28.088 15.334 27.6406 15.4989 27.2089 15.688C26.7302 15.8976 26.2691 15.996 25.7498 16.0285" stroke="#78A768" stroke-linecap="round"/>
<path d="M24.6934 13.3659C24.7144 13.2344 24.7142 13.1075 24.7142 12.975C24.7142 12.841 24.7363 12.6843 24.7096 12.5541C24.6623 12.3238 24.6132 12.0969 24.5222 11.8787C24.4581 11.7249 24.3806 11.5062 24.2562 11.3884C24.2248 11.3585 24.2354 11.4997 24.2354 11.5005C24.2354 11.6489 24.2335 11.7974 24.2354 11.9458C24.2387 12.2035 24.3005 12.437 24.3811 12.679C24.4054 12.7517 24.4423 12.8785 24.3973 12.7114C24.347 12.5244 24.2586 12.3507 24.1822 12.1736C24.0639 11.8995 23.9527 11.6226 23.833 11.349C23.7002 11.0455 23.6387 10.6951 23.4745 10.4077C23.4677 10.3958 23.3932 10.2549 23.3842 10.3175C23.3667 10.44 23.3793 10.5782 23.3819 10.7014C23.3902 11.083 23.5043 11.4372 23.6849 11.77C23.6882 11.7759 23.7677 11.962 23.7312 11.962C23.6821 11.962 23.5732 11.7365 23.5566 11.7075C23.3097 11.2778 23.1113 10.8263 22.8407 10.41C22.7095 10.2081 22.5469 10.0088 22.4556 9.78548C22.3349 9.49054 22.3614 9.11128 22.429 8.8071C22.473 8.60924 22.5858 8.39529 22.6834 8.21961C22.7433 8.11189 22.8026 8.00083 22.8661 7.8958C22.9049 7.83166 22.9658 7.7997 23.0119 7.74545C23.0533 7.69666 23.3726 7.39274 23.4236 7.50491C23.5224 7.7223 23.512 7.98274 23.523 8.21498C23.5351 8.46961 23.547 8.72035 23.6005 8.97016C23.6705 9.29665 23.8019 9.57965 23.944 9.88031C24.1428 10.3008 24.4001 10.703 24.6321 11.1062C24.7548 11.3194 24.855 11.4997 24.9235 11.7353C24.9807 11.9318 25.0121 12.137 25.0588 12.3367C25.0903 12.471 25.1243 12.6027 25.1513 12.738C25.1835 12.8985 25.2952 12.4815 25.3063 12.4523C25.4757 12.0071 25.7093 11.5864 25.8973 11.1478C26.0185 10.865 26.1593 10.5913 26.2847 10.3105C26.4418 9.95855 26.6669 9.62124 26.8895 9.30785C27.0359 9.10186 27.2081 8.88675 27.3799 8.7007C27.5579 8.50789 27.7165 8.28564 27.7742 8.02763C27.7974 7.92413 27.8547 7.48243 27.6563 7.49566C27.5538 7.50249 27.4744 7.5804 27.3984 7.64137C27.2042 7.79719 27.0146 7.95939 26.8305 8.12709C26.327 8.58595 25.9365 9.09111 25.6047 9.68833C25.3509 10.1452 25.0944 10.6136 24.9547 11.1201C24.9326 11.2003 24.9274 11.3571 24.8819 11.4254C24.8708 11.442 24.8811 11.3853 24.8819 11.3652C24.8861 11.2533 24.8996 11.143 24.9154 11.0322C25.065 9.98142 25.1446 8.92249 25.2971 7.87267C25.334 7.61862 25.3984 7.37102 25.4393 7.11864C25.4534 7.03162 25.4236 7.04999 25.385 7.11402C25.0192 7.71944 24.8573 8.45723 24.6888 9.13438C24.6209 9.40706 24.5671 9.68405 24.4898 9.95432C24.4873 9.96328 24.4454 10.0978 24.4378 10.0908C24.3372 9.99741 24.2655 9.79625 24.1984 9.67677C24.0865 9.47735 23.9956 9.26513 23.907 9.05458C23.8498 8.9188 23.8043 8.77977 23.7566 8.64057C23.7398 8.59129 23.7178 8.48198 23.663 8.45669C23.5755 8.41632 23.3493 8.7363 23.301 8.78281C23.2327 8.84854 23.1199 8.99001 23.0049 8.94819C22.8821 8.90352 22.8209 8.66995 22.8453 8.55383C22.8766 8.40551 23.029 8.34616 23.0697 8.22424" stroke="#78A768" stroke-linecap="round"/>
<path d="M23.278 9.72295C23.2569 9.77704 23.2461 9.91845 23.1831 9.83744C23.0768 9.70076 23.049 9.56836 23.049 9.39104C23.049 9.19338 23.1077 8.9948 23.1276 8.79777C23.1583 8.49434 23.211 8.19196 23.2155 7.88646C23.2209 7.52349 23.2815 7.13526 23.3925 6.79012C23.4642 6.56687 23.5477 6.33857 23.581 6.10549C23.5886 6.05217 23.5902 5.99848 23.5902 5.94474C23.5902 5.91434 23.5428 6.05454 23.5416 6.05692C23.4404 6.26887 23.2857 6.45032 23.1554 6.64441C23.0138 6.8553 22.8949 7.06582 22.7934 7.29897C22.7112 7.48761 22.6771 7.67268 22.5482 7.8402C22.5271 7.86764 22.3004 8.14327 22.4037 7.9998C22.6209 7.69809 22.8309 7.39218 23.0397 7.08387C23.3126 6.681 23.5637 6.26385 23.8354 5.86032C24.086 5.48815 24.421 5.18778 24.7802 4.92242C25.0124 4.75088 25.2719 4.61385 25.4938 4.4286C25.5315 4.39714 25.5574 4.30603 25.6013 4.32799C25.6293 4.34197 25.5098 4.60106 25.5053 4.61132C25.2986 5.08814 25.0747 5.55912 24.8531 6.02916C24.5898 6.58746 24.277 7.14108 24.1083 7.73843C24.0743 7.85887 24.0561 7.97914 24.0505 8.10388C24.0472 8.17705 24.004 8.37922 24.0516 8.32361C24.0795 8.29115 24.0967 8.21965 24.1153 8.18252C24.215 7.98306 24.3244 7.78811 24.4275 7.59041C24.8032 6.87033 25.1515 6.13505 25.547 5.42548C25.6079 5.31617 25.6708 5.20752 25.7413 5.10398C25.7753 5.05397 25.764 5.07279 25.7413 5.11323C25.5526 5.44905 25.352 5.78648 25.0601 6.0442C24.7824 6.28932 24.4443 6.44152 24.1338 6.63747C24.1224 6.64465 23.9934 6.756 23.995 6.70917C24.0032 6.46674 24.1148 6.2209 24.1395 5.97596C24.1461 5.91129 24.1508 5.84665 24.1523 5.78168C24.1536 5.72456 24.1478 5.8959 24.143 5.95284C24.0941 6.53036 23.9369 7.09011 23.8585 7.66326C23.8224 7.9272 23.7675 8.27126 23.8412 8.53525C23.8463 8.55371 23.8837 8.64692 23.9071 8.65668C23.966 8.6812 24.3672 8.06892 24.3963 8.02987C24.8992 7.35417 25.3273 6.63954 25.7413 5.90658C25.8567 5.7022 25.9683 5.49492 26.0986 5.29943C26.125 5.25987 26.2119 5.15855 26.2062 5.20575C26.1894 5.34433 26.1309 5.48841 26.0824 5.61746C25.9562 5.95319 25.8102 6.28077 25.6869 6.61781C25.3991 7.4044 25.1395 8.21682 24.9502 9.03369C24.9354 9.09751 24.8791 9.36135 24.9838 9.10076C25.1054 8.79772 25.1951 8.47951 25.2902 8.16749C25.5832 7.20671 25.8825 6.25241 26.2247 5.30752C26.3042 5.088 26.3854 4.86945 26.4756 4.65411C26.4961 4.60523 26.5129 4.55441 26.5392 4.5084C26.5452 4.49789 26.5455 4.53215 26.545 4.54425C26.5213 5.10109 26.3894 5.66198 26.3033 6.21189C26.2056 6.83568 26.0785 7.46147 26.0685 8.09463C26.0669 8.2012 26.0436 8.49327 26.1194 8.21606C26.2631 7.69082 26.405 7.16806 26.5277 6.63747C26.6649 6.04379 26.8153 5.45121 26.9266 4.85187C26.9322 4.8219 26.946 4.73149 26.9417 4.76166C26.9221 4.89844 26.8781 5.03651 26.8422 5.16874C26.6561 5.85544 26.4462 6.53353 26.2085 7.20414C26.1229 7.44545 26.0329 7.68525 25.9552 7.92925C25.941 7.97376 25.9302 8.01932 25.9147 8.0634C25.909 8.07963 25.9253 8.03062 25.9321 8.01483C26.1835 7.43038 26.4867 6.87091 26.7335 6.28359C27.0077 5.63109 27.2683 4.97464 27.5743 4.33608C27.7046 4.06407 27.6369 4.41611 27.624 4.52112C27.5525 5.10103 27.4808 5.67908 27.4459 6.26277C27.4286 6.55199 27.3951 6.85757 27.4413 7.14632C27.4485 7.1917 27.4661 7.15785 27.4806 7.12781C27.5559 6.97135 27.6029 6.79831 27.6448 6.63053C27.7474 6.22024 27.8453 5.77316 27.8333 5.348C27.824 5.01571 27.6488 5.98712 27.5754 6.31134C27.4798 6.73357 27.3939 7.15398 27.3303 7.58231C27.3247 7.61987 27.3397 7.80621 27.2863 7.80782C27.2235 7.80973 27.2105 7.77403 27.173 7.7315C27.1013 7.65021 27.0108 7.57632 26.9128 7.52911C26.8093 7.47929 26.7762 7.40279 26.759 7.28741C26.7076 6.94402 26.7765 6.58336 26.8399 6.24658C26.9836 5.483 27.2484 4.64469 27.6587 3.97989C27.7966 3.75637 27.9317 3.5429 28.1652 3.40859C28.3624 3.29524 28.5505 3.17853 28.7654 3.10212C28.9914 3.02178 29.2228 2.90121 29.4605 2.86504C29.6544 2.83554 29.8631 2.7909 30.0526 2.73783C30.0932 2.72646 30.2683 2.69234 30.292 2.65688C30.3157 2.62127 30.2354 2.72208 30.2006 2.74708C30.0666 2.84355 29.8958 2.90738 29.7473 2.97607C29.4187 3.12807 29.0872 3.26483 28.7458 3.38546C28.4636 3.48516 28.1487 3.53487 27.8992 3.70696C27.6201 3.89953 27.3238 4.11515 27.1441 4.41125C27.105 4.47558 27.0826 4.55448 27.0504 4.62289C27.0457 4.6328 27.0646 4.60621 27.0712 4.59745C27.1206 4.53157 27.1861 4.4943 27.2574 4.4552C27.6855 4.22043 28.1422 4.02796 28.5908 3.83648C28.7612 3.76375 28.894 3.65364 29.0557 3.57049C29.0743 3.56094 29.1165 3.52192 29.1355 3.52192C29.139 3.52192 29.0733 3.58163 29.0511 3.58669C28.7835 3.64749 28.7781 3.37883 28.6903 3.18654C28.6257 3.04504 28.5742 2.99164 28.4162 3.0443C28.2069 3.11406 28.0089 3.22392 27.8067 3.31144C27.6348 3.38589 27.4538 3.43615 27.2771 3.49764C26.9814 3.60046 26.7051 3.75851 26.4074 3.85267C26.1176 3.9443 25.8425 4.09963 25.5447 4.1603C25.4863 4.17219 25.3765 4.2531 25.3388 4.30023C25.3211 4.32241 25.2934 4.3309 25.2764 4.3569C25.2687 4.36854 25.2568 4.43781 25.2463 4.44132C25.225 4.44841 25.261 4.39828 25.274 4.38003C25.3493 4.27459 25.4567 4.19674 25.5632 4.1256C25.8949 3.90393 26.2467 3.7481 26.6167 3.60403C27.2652 3.35153 27.9233 3.12331 28.57 2.8662C28.6806 2.82222 28.794 2.77076 28.9077 2.74477C29.0217 2.71872 29.1232 2.72488 29.2315 2.67076C29.4374 2.5678 29.613 2.38939 29.8306 2.31687C30.1197 2.22048 30.4236 2.04163 30.7303 2.04163C30.8248 2.04163 30.9561 2.0194 31.0425 2.05782C31.1085 2.08715 31.2505 2.10408 31.3236 2.10408C31.4209 2.10408 31.4987 2.16308 31.5884 2.16653C31.6093 2.16734 31.7444 2.20484 31.6879 2.20817C31.6286 2.21165 31.577 2.22898 31.5167 2.22898C31.3419 2.22898 31.1681 2.26409 30.9905 2.24864C30.7704 2.2295 30.5567 2.17253 30.3348 2.16653C30.1386 2.16123 29.9406 2.14572 29.7415 2.14572C29.497 2.14572 29.2239 2.11183 28.9863 2.17578C28.8945 2.20051 28.7945 2.20817 28.6995 2.20817C28.5924 2.20817 28.6784 2.21331 28.7319 2.18735C28.9446 2.08405 29.1948 2.15592 29.4189 2.09367C29.6559 2.02783 29.9238 2.02082 30.1682 2.02082C30.3829 2.02082 30.5931 2 30.8089 2C30.988 2 31.1718 2.02082 31.3455 2.02082C31.4584 2.02082 31.5837 2.02029 31.6717 2.09946C31.7168 2.14011 31.8778 2.15989 31.8949 2.21973C31.9093 2.27033 31.9548 2.48175 31.9064 2.52041C31.8671 2.55188 31.8527 2.59705 31.8081 2.6245C31.7026 2.68944 31.5797 2.68464 31.4704 2.73321C31.3253 2.79773 31.1652 2.82454 31.0217 2.89627C30.869 2.97261 30.7246 3.06686 30.5776 3.15301C30.4318 3.23852 30.2729 3.34255 30.1405 3.44791C30.0055 3.55528 29.911 3.71946 29.7774 3.83186C29.6115 3.97136 29.4838 4.18338 29.3564 4.3569C29.2321 4.52626 29.084 4.68711 28.9354 4.83568C28.7531 5.01799 28.5657 5.19465 28.3884 5.38154C28.3388 5.43383 28.1229 5.57399 28.1594 5.65446C28.2416 5.83523 28.1109 6.12081 28.1074 6.30903C28.1053 6.4247 28.0658 6.53976 28.0658 6.65135C28.0658 6.67182 28.0608 6.74678 28.0704 6.68142C28.0987 6.48967 28.141 6.3021 28.1907 6.11474C28.3299 5.58951 28.5493 5.07613 28.9389 4.68649C29.4548 4.17063 30.046 3.74481 30.7083 3.44675C30.8729 3.37268 31.025 3.26816 31.1883 3.18654C31.3622 3.09959 31.5562 3.0535 31.7341 2.97838C31.9353 2.89341 32.1046 2.80578 32.2811 2.6881C32.3864 2.61794 32.4243 2.43628 32.3124 2.36429C32.1508 2.26042 31.8992 2.20817 31.704 2.20817C31.5707 2.20817 31.4373 2.20817 31.3039 2.20817C30.9903 2.20817 30.7008 2.30626 30.3903 2.32844C29.7059 2.37733 29.1807 2.69491 28.5654 2.9992" stroke="#78A768" stroke-linecap="round"/>
</svg>
