<svg width="510" height="510" viewBox="0 0 510 510" fill="none" xmlns="http://www.w3.org/2000/svg">
<rect width="510" height="510" fill="#C3E3C4"/>
<line x1="51.5" y1="1" x2="51.5" y2="509" stroke="#375F34"/>
<line x1="51.5" y1="1" x2="51.5" y2="509" stroke="#375F34"/>
<line x1="204.5" y1="1" x2="204.5" y2="509" stroke="#375F34"/>
<line x1="357.5" y1="1" x2="357.5" y2="509" stroke="#375F34"/>
<line x1="102.5" y1="1" x2="102.5" y2="509" stroke="#375F34"/>
<line x1="255.5" y1="1" x2="255.5" y2="509" stroke="#375F34"/>
<line x1="408.5" y1="1" x2="408.5" y2="509" stroke="#375F34"/>
<line x1="153.5" y1="1" x2="153.5" y2="509" stroke="#375F34"/>
<line x1="306.5" y1="1" x2="306.5" y2="509" stroke="#375F34"/>
<line x1="459.5" x2="459.5" y2="508" stroke="#375F34"/>
<line x1="1" y1="51.5" x2="509" y2="51.5" stroke="#375F34"/>
<line x1="1" y1="102.5" x2="509" y2="102.5" stroke="#375F34"/>
<line x1="1" y1="153.5" x2="509" y2="153.5" stroke="#375F34"/>
<line x1="1" y1="204.5" x2="509" y2="204.5" stroke="#375F34"/>
<line x1="1" y1="255.5" x2="509" y2="255.5" stroke="#375F34"/>
<line x1="1" y1="306.5" x2="509" y2="306.5" stroke="#375F34"/>
<line x1="1" y1="357.5" x2="509" y2="357.5" stroke="#375F34"/>
<line x1="1" y1="408.5" x2="509" y2="408.5" stroke="#375F34"/>
<line x1="1" y1="459.5" x2="509" y2="459.5" stroke="#375F34"/>
</svg>
